<?xml version="1.0" standalone="no"?>
<!DOCTYPE svg PUBLIC "-//W3C//DTD SVG 20010904//EN"
 "http://www.w3.org/TR/2001/REC-SVG-20010904/DTD/svg10.dtd">
<svg version="1.0" xmlns="http://www.w3.org/2000/svg"
 width="96px" height="96px" viewBox="0 0 450.000000 450.000000"
 preserveAspectRatio="xMidYMid meet">

<g transform="translate(0.000000,450.000000) scale(0.100000,-0.100000)"
fill="#FF0000" stroke="none">
<path d="M1810 4466 l-155 -32 3 -81 c3 -66 0 -90 -18 -129 -69 -157 -258
-215 -400 -124 -37 24 -86 79 -106 118 -2 5 -269 -179 -269 -186 0 -4 13 -29
29 -55 38 -63 46 -152 21 -228 -54 -163 -265 -232 -409 -134 -20 14 -39 25
-41 25 -3 0 -46 -61 -96 -136 -82 -123 -90 -138 -73 -147 44 -25 103 -92 124
-139 42 -98 24 -209 -47 -288 -62 -69 -124 -93 -227 -88 l-80 3 -26 -130 c-15
-71 -29 -145 -33 -162 -6 -32 -5 -33 26 -33 44 0 125 -40 164 -81 101 -107 97
-286 -8 -386 -42 -39 -113 -72 -157 -73 -27 0 -32 -3 -28 -17 2 -10 17 -79 31
-153 36 -184 30 -171 66 -158 43 15 147 4 194 -20 126 -64 181 -220 125 -350
-20 -47 -80 -114 -124 -139 -17 -9 -9 -24 73 -147 50 -75 93 -136 96 -136 2 0
26 14 54 31 65 41 153 50 232 24 158 -53 229 -254 140 -397 -18 -28 -28 -54
-24 -58 42 -36 267 -179 272 -173 3 5 16 26 29 45 30 48 102 94 166 108 127
26 264 -50 311 -174 14 -36 17 -64 13 -124 l-6 -77 152 -29 c83 -16 157 -31
164 -33 8 -4 12 6 12 28 0 46 40 127 81 166 104 98 274 98 378 0 41 -39 81
-120 81 -166 0 -22 4 -32 13 -28 6 2 80 17 164 33 l152 29 -6 77 c-7 94 11
151 69 214 77 84 213 113 310 65 44 -21 112 -85 135 -125 9 -17 23 -10 139 69
71 49 133 91 137 95 4 4 -7 31 -25 60 -28 45 -33 64 -36 127 -4 64 -1 80 23
128 71 145 252 199 387 116 28 -18 54 -28 58 -24 18 21 181 265 178 267 -110
67 -161 147 -161 251 0 104 49 188 143 243 40 24 55 27 140 27 l95 -1 29 151
c16 82 31 156 33 162 4 9 -6 13 -28 13 -46 0 -127 40 -166 81 -101 107 -97
286 8 386 42 39 113 72 157 73 28 0 32 3 27 23 -8 35 -65 310 -65 313 0 2 -12
-1 -26 -6 -47 -18 -135 -12 -189 14 -134 63 -198 231 -136 358 20 43 85 112
124 134 16 9 7 26 -73 145 -50 74 -94 134 -98 134 -4 0 -29 -13 -55 -29 -133
-80 -313 -24 -382 119 -24 48 -27 64 -23 128 3 63 8 82 36 127 18 29 29 56 25
60 -4 4 -66 46 -137 94 -117 79 -130 86 -139 69 -23 -43 -113 -119 -157 -132
-141 -42 -283 21 -341 153 -17 40 -20 63 -18 129 l4 81 -157 31 c-87 18 -160
30 -163 27 -3 -3 -5 -17 -5 -31 0 -39 -43 -122 -81 -158 -107 -101 -286 -97
-386 8 -39 42 -72 113 -73 157 0 17 -3 32 -7 31 -5 -1 -78 -15 -163 -33z m-47
-891 c37 -8 90 -26 118 -42 65 -35 150 -127 183 -197 44 -93 51 -144 51 -401
l0 -240 -177 -3 -178 -2 0 212 c0 117 -5 229 -10 249 -13 47 -49 80 -97 86
-51 6 -89 -10 -113 -49 -20 -32 -20 -51 -20 -936 0 -999 -4 -944 65 -976 57
-27 129 -4 153 50 8 17 12 108 12 279 l0 255 -60 0 -60 0 0 160 0 160 243 -2
242 -3 0 -435 c0 -394 -2 -441 -18 -495 -51 -165 -139 -259 -290 -307 -91 -30
-258 -29 -346 1 -147 51 -245 160 -286 318 -23 86 -22 1897 0 1992 40 169 162
290 329 326 81 18 176 18 259 0z m1227 -21 c0 -9 77 -592 170 -1295 94 -703
170 -1288 170 -1299 0 -19 -6 -20 -188 -20 l-187 0 -40 318 -40 317 -99 3
c-54 2 -103 -1 -107 -5 -5 -5 -25 -135 -44 -289 -19 -153 -37 -294 -40 -311
l-6 -33 -190 0 -191 0 6 28 c3 15 80 596 171 1292 91 696 168 1275 170 1288
l5 22 220 0 c197 0 220 -2 220 -16z"/>
<path d="M2684 2245 c-144 -72 -147 -277 -5 -352 153 -81 326 63 277 231 -17
58 -61 107 -118 130 -53 22 -96 20 -154 -9z"/>
</g>
</svg>
