<?xml version="1.0" standalone="no"?>
<!DOCTYPE svg PUBLIC "-//W3C//DTD SVG 20010904//EN"
 "http://www.w3.org/TR/2001/REC-SVG-20010904/DTD/svg10.dtd">
<svg version="1.0" xmlns="http://www.w3.org/2000/svg"
 width="512.000000pt" height="512.000000pt" viewBox="0 0 512.000000 512.000000"
 preserveAspectRatio="xMidYMid meet">

<g transform="translate(0.000000,512.000000) scale(0.100000,-0.100000)"
fill="#57068c" stroke="none">
<path d="M0 2560 l0 -2560 2560 0 2560 0 0 2560 0 2560 -2560 0 -2560 0 0
-2560z m2699 1705 c41 -97 97 -319 112 -435 12 -107 27 -80 -134 -245 -235
-241 -337 -443 -337 -665 0 -96 25 -210 65 -298 14 -30 25 -56 25 -58 0 -12
-175 86 -237 132 -249 186 -313 444 -182 733 45 100 147 244 264 376 59 66
136 157 171 202 62 78 174 248 174 263 0 20 32 80 39 75 5 -3 23 -39 40 -80z
m499 -325 c86 -219 100 -472 30 -537 -13 -12 -85 -55 -160 -97 -218 -119 -310
-188 -392 -295 -88 -114 -146 -255 -162 -390 -8 -71 -11 -68 -49 29 -38 101
-55 187 -55 285 0 238 124 452 398 685 59 51 122 106 141 123 42 39 118 151
160 236 39 76 45 73 89 -39z m-1259 -58 c40 -79 91 -227 91 -264 0 -16 -8 -42
-19 -56 -10 -15 -32 -54 -49 -88 -173 -345 -85 -658 250 -880 85 -57 81 -60
-64 -45 -180 20 -300 63 -401 146 -117 95 -176 225 -184 400 -8 186 32 310
163 500 70 101 129 217 150 294 10 33 21 58 26 55 5 -3 21 -31 37 -62z m1618
-350 c-21 -428 -203 -769 -482 -906 -115 -57 -202 -77 -362 -83 -162 -6 -151
-14 -128 85 41 173 124 320 246 438 86 83 135 115 323 215 81 43 163 95 195
124 98 87 156 151 181 199 14 25 27 46 29 46 2 0 1 -53 -2 -118z m-752 -1182
l0 -105 -357 -3 -358 -2 0 110 0 110 358 -2 357 -3 0 -105z m-145 -190 c0 -51
-174 -1367 -182 -1377 -14 -18 -63 -16 -78 2 -9 11 -158 1291 -160 1373 0 9
49 12 210 12 134 0 210 -4 210 -10z"/>
</g>
</svg>
